<?xml version="1.0" encoding="UTF-8"?>
<svg id="_图层_2" data-name="图层 2" xmlns="http://www.w3.org/2000/svg" xmlns:xlink="http://www.w3.org/1999/xlink" viewBox="0 0 568.26 240.95">
  <defs>
    <style>
      .cls-1 {
        fill: url(#_未命名的渐变_56);
      }

      .cls-1, .cls-2, .cls-3, .cls-4, .cls-5 {
        stroke-width: 0px;
      }

      .cls-2 {
        fill: url(#_未命名的渐变_56-2);
      }

      .cls-3 {
        fill: url(#_未命名的渐变_56-3);
      }

      .cls-5 {
        fill: #fff;
      }
    </style>
    <linearGradient id="_未命名的渐变_56" data-name="未命名的渐变 56" x1="100.08" y1="66.12" x2="135.3" y2="-.11" gradientUnits="userSpaceOnUse">
      <stop offset="0" stop-color="#06f"/>
      <stop offset=".2" stop-color="#1677ff"/>
      <stop offset="1" stop-color="#04a6ff"/>
    </linearGradient>
    <linearGradient id="_未命名的渐变_56-2" data-name="未命名的渐变 56" x1="4.21" y1="176.84" x2="177.35" y2="113.83" xlink:href="#_未命名的渐变_56"/>
    <linearGradient id="_未命名的渐变_56-3" data-name="未命名的渐变 56" x1="49.53" y1="86.96" x2="30.29" y2="15.16" xlink:href="#_未命名的渐变_56"/>
  </defs>
  <g id="_图层_1-2" data-name="图层 1">
    <g>
      <g>
        <path class="cls-4" d="m400.4,158.26c-19.08,0-34.54,15.46-34.54,34.54s15.46,34.54,34.54,34.54,34.54-15.46,34.54-34.54-15.47-34.54-34.54-34.54Zm0,57.54c-12.7,0-23-10.3-23-23s10.3-23,23-23,23,10.3,23,23-10.3,23-23,23Z"/>
        <path class="cls-4" d="m345.12,202.78c-3.49-2.76-6.57-3.29-6.48-3.97.08-.59,1.72-.32,4.64-1.2,9.03-2.61,14.38-9.39,14.38-18.27,0-15.63-10.82-19.89-26.46-19.89h-28.71v66.54s2.39.58,5.8.58,5.79-.58,5.8-.58v-25.26h7.46c5.32,0,9.32.67,12.19,2.85,3.08,2.34,5.52,5.54,8.75,10.58,1.89,2.95,6.59,11.82,6.6,11.84,0,0,2.77.57,6.79.57s6.62-.9,6.62-.9c-7.56-12.06-11.63-18.33-17.39-22.88Zm-15.79-11.96h-15.24v-21.6h17.3c10.02,0,14.69,1.96,14.69,10.11,0,8.67-6.73,11.49-16.75,11.49Z"/>
        <path class="cls-4" d="m490.02,159.53v39.47c0,10.7-6.33,17.47-16.78,17.47s-16.78-6.77-16.78-17.47v-39.47s-2.4-.58-5.84-.58-5.79.58-5.79.58v39.87c0,19.44,12.46,27.94,28.41,27.94s28.42-8.51,28.42-27.94v-39.87s-2.41-.58-5.79-.58-5.83.58-5.84.58Z"/>
        <path class="cls-4" d="m544.77,159.53h-29.64v66.42s2.4.58,5.84.58,5.83-.58,5.84-.58v-21.48h18.36c13.79,0,23.09-8.91,23.09-22.72s-9.17-22.21-23.49-22.21Zm-1.95,34.56h-16.02v-24.18h16.02c10.02,0,14.34,3.3,14.34,12.14s-5.38,12.04-14.34,12.04Z"/>
        <path class="cls-4" d="m258.7,168.9c9.37,0,16.4,3.43,22.22,11.47l8.57-6.31c-7.69-10.61-16.08-15.8-31.72-15.8-19.1,0-33.84,14.74-33.84,34.68s14.16,34.4,31.71,34.4c4.93,0,9.42-1.07,13.18-2.66,3.44-1.4,5.38-2.45,7.6-3.97.93-.63,2.01-1.37,2.71-1.12.59.21.63.86.63,1.58,0,2.11.02,4.64.02,4.64,0,0,1.82.58,4.43.58s4.42-.73,4.42-.73v-35.47h-29.81v9.47h19.58c-.05,7.11-6.48,17.04-21.16,17.04-13.86,0-21.97-11.01-21.97-23.77,0-14.4,11.37-24.04,23.45-24.04Z"/>
      </g>
      <g>
        <path class="cls-4" d="m248.87,71.45c-9.76,20.62-18.13,43.02-25.12,66.73,0,0,2.39.58,6,.58,3.42,0,5.83-.58,5.85-.58,2.19-7.75,5.71-18.21,5.71-18.21,0,0,9.21-1.08,15.38-.56,7.25.61,10.98,1.63,14.43,3.17,1.5.67,2.3,1.15,2.7,2.38.81,2.49,2.26,7.25,3.96,13.21,0,0,2.48.59,5.96.59s5.87-.56,5.87-.57c-6.84-23.72-15.13-46.12-25.05-66.73h-15.67Zm9.08,39.48c-4.94,0-10.73.83-14.2,1.99,4.11-12.63,10.81-28.22,11.96-30.81.33-.75.67-.97,1.02-.97.33,0,.66.19.95.83,1.24,2.73,7.93,18.32,11.86,30.04-2.71-.42-6.44-1.07-11.58-1.07Z"/>
        <path class="cls-4" d="m343.44,71.62v48.25c-11.42-18.39-22.86-35.03-34-48.25,0,0-2.35-.58-5.72-.58s-5.71.58-5.72.58v66.55s2.35.58,5.69.58,5.67-.58,5.69-.58v-51.56c12.16,16.74,23.59,34.01,33.86,51.56,0,0,2.4.58,5.8.58s5.78-.58,5.78-.58v-66.55s-2.34-.58-5.69-.58-5.69.58-5.69.58Z"/>
        <path class="cls-4" d="m364.72,82.4h24.14v55.77s2.54.58,6.18.58,6.17-.58,6.18-.58v-55.77h24.14v-10.73h-60.64v10.73Z"/>
      </g>
    </g>
    <g>
      <path class="cls-1" d="m106.08,69.1c-1.55-.32-2.98-1.46-3.64-3.47-.58-1.77-.41-3.7-.08-5.53,1.7-9.45,3.23-18.93,5.44-28.3,1.79-7.59,4.31-15.12,8.92-21.5,3.32-4.59,8.13-8.52,13.7-9.92,9.51-2.38,13.47,6.91,10.16,14.79-2.79,6.65-9.53,10.03-14.49,14.81-9.06,8.74-11.89,23.49-14.51,35.28-.67,3-3.21,4.33-5.51,3.85Z"/>
      <path class="cls-2" d="m88.54,57.05c-3.32-.13-6.56-.59-9.62-2.34-2.88-1.65-6.69-4.59-10.26-3.34-3.92,1.37-5.44,6.82-8.49,9.48-4.28,3.75-9.49,5.79-14.32,8.67-4.18,2.49-8.2,5.2-11.97,8.28-7.5,6.11-14.03,13.41-19.27,21.53C4.43,115.1-.66,133.84.07,152.59c2.04,52.18,47.27,92.5,99.99,88.02,47.08-4,83.86-43.69,84.19-90.84.11-15.96-3.92-31.83-11.76-45.74-7.57-13.45-18.56-24.91-31.66-33.07-13.41-8.35-28.92-13.14-44.71-13.81-2.54-.11-5.09,0-7.59-.1Z"/>
      <path class="cls-3" d="m25.21,22.66c.85-2.52,2.18-4.81,4.16-6.43,3.83-3.13,9.48-2.58,12.66,1.22,7.53,9,1.83,22.78,1.53,33.14-.25,8.73,2.68,17.75,6.2,25.45.68,1.49,1.82,3.02,2.03,4.72.35,2.86-.89,5.22-3.1,6.31-3.76,1.86-6.16-2.08-7.71-4.89-3.58-6.48-6.63-13.45-9.52-20.26-2.97-7.02-5.48-14.28-6.72-21.82-.22-1.36-.4-2.72-.54-4.09-.12-1.24-.21-2.48-.25-3.72-.11-3.01.2-6.5,1.26-9.64Z"/>
      <path class="cls-5" d="m177.55,137.18c-2.97-34.38-30.43-62.21-61.24-62.17-30.72.04-53.18,27.79-50.24,61.98,2.94,34.2,30.18,62.05,60.93,62.2,30.85.15,53.52-27.62,50.55-62.01Zm-16.07,38.98c-7.93,8.88-18.77,13.95-30.49,14.31-13.2.4-26.17-4.96-36.58-15.08-10.44-10.15-16.99-23.85-18.49-38.62-1.58-15.64,2.89-30.66,12.35-41.21,7.95-8.87,18.75-13.93,30.56-14.28.46-.01.92-.02,1.38-.02,12.97.01,25.72,5.64,35.86,15.86,10.14,10.23,16.49,23.85,17.84,38.3,1.45,15.43-3.1,30.28-12.43,40.73Z"/>
    </g>
  </g>
</svg>